# xmcd CD database file
#
# Track frame offsets:
#	182
#	24172
#	66762
#	90815
#	117790
#	146105
#	186702
#	225745
#	259892
#
# Disc length: 4044 seconds
#
# Revision: 0
# Processed by: cddbd v1.5.2PL0 Copyright (c) Steve Scherf et al.
# Submitted via: CDex 1.50
#
DISCID=760fca09
DTITLE=Louis Smith - The Very Thought Of You
DYEAR=1994
DGENRE=Jazz
TTITLE0=My Ideal
TTITLE1=Don't Take Your Love From Me
TTITLE2=Mihoko's Tune
TTITLE3=I Will Wait For You
TTITLE4=But Not For Me
TTITLE5=A Cottage For Sale
TTITLE6=The Very Thought Of You
TTITLE7=A Child Is Born
TTITLE8=I Should Care
EXTD=YEAR: 1994
EXTT0=
EXTT1=
EXTT2=
EXTT3=
EXTT4=
EXTT5=
EXTT6=
EXTT7=
EXTT8=
PLAYORDER=
